HIERARCHY
ROOT hip
{
  OFFSET 0 0 0
  CHANNELS 6 Xposition Yposition Zposition Zrotation Yrotation Xrotation
  JOINT abdomen
  {
    OFFSET 0 20.6881 -0.73152
    CHANNELS 3 Zrotation Xrotation Yrotation
    JOINT chest
    {
      OFFSET 0 11.7043 -0.48768
      CHANNELS 3 Zrotation Xrotation Yrotation
      JOINT neck
      {
        OFFSET 0 22.1894 -2.19456
        CHANNELS 3 Zrotation Xrotation Yrotation
        JOINT head
        {
          OFFSET -0.24384 7.07133 1.2192
          CHANNELS 3 Zrotation Xrotation Yrotation
          JOINT leftEye
          {
            OFFSET 4.14528 8.04674 8.04672
            CHANNELS 3 Zrotation Xrotation Yrotation
            End Site
            {
              OFFSET 1 0 0
            }
          }
          JOINT rightEye
          {
            OFFSET -3.6576 8.04674 8.04672
            CHANNELS 3 Zrotation Xrotation Yrotation
            End Site
            {
              OFFSET 1 0 0
            }
          }
        }
      }
      JOINT rCollar
      {
        OFFSET -2.68224 19.2634 -4.8768
        CHANNELS 3 Zrotation Xrotation Yrotation
        JOINT rShldr
        {
          OFFSET -8.77824 -1.95073 1.46304
          CHANNELS 3 Zrotation Xrotation Yrotation
          JOINT rForeArm
          {
            OFFSET -28.1742 -1.7115 0.48768
            CHANNELS 3 Zrotation Xrotation Yrotation
            JOINT rHand
            {
              OFFSET -22.5879 0.773209 7.07136
              CHANNELS 3 Zrotation Xrotation Yrotation
              JOINT rThumb1
              {
                OFFSET -1.2192 -0.487915 3.41376
                CHANNELS 3 Zrotation Xrotation Yrotation
                JOINT rThumb2
                {
                  OFFSET -3.37035 -0.52449 3.41376
                  CHANNELS 3 Zrotation Xrotation Yrotation
                  End Site
                  {
                    OFFSET -1.78271 -1.18214 1.43049
                  }
                }
              }
              JOINT rIndex1
              {
                OFFSET -7.75947 0.938293 5.60832
                CHANNELS 3 Zrotation Xrotation Yrotation
                JOINT rIndex2
                {
                  OFFSET -2.54057 -0.884171 1.56538
                  CHANNELS 3 Zrotation Xrotation Yrotation
                  End Site
                  {
                    OFFSET -1.62519 -0.234802 1.16502
                  }
                }
              }
              JOINT rMid1
              {
                OFFSET -8.24714 1.18213 3.41376
                CHANNELS 3 Zrotation Xrotation Yrotation
                JOINT rMid2
                {
                  OFFSET -3.10165 -0.590103 1.0647
                  CHANNELS 3 Zrotation Xrotation Yrotation
                  End Site
                  {
                    OFFSET -2.48547 -0.328903 0.83742
                  }
                }
              }
              JOINT rRing1
              {
                OFFSET -8.82822 0.546677 1.51678
                CHANNELS 3 Zrotation Xrotation Yrotation
                JOINT rRing2
                {
                  OFFSET -2.60934 -0.819778 -0.0198488
                  CHANNELS 3 Zrotation Xrotation Yrotation
                  End Site
                  {
                    OFFSET -2.33842 -0.294052 0.168128
                  }
                }
              }
              JOINT rPinky1
              {
                OFFSET -8.27202 -0.0477905 -0.4584
                CHANNELS 3 Zrotation Xrotation Yrotation
                JOINT rPinky2
                {
                  OFFSET -1.82734 -0.647385 -0.700984
                  CHANNELS 3 Zrotation Xrotation Yrotation
                  End Site
                  {
                    OFFSET -1.69225 -0.51767 -0.607171
                  }
                }
              }
            }
          }
        }
      }
      JOINT lCollar
      {
        OFFSET 2.68224 19.2634 -4.8768
        CHANNELS 3 Zrotation Xrotation Yrotation
        JOINT lShldr
        {
          OFFSET 8.77824 -1.95073 1.46304
          CHANNELS 3 Zrotation Xrotation Yrotation
          JOINT lForeArm
          {
            OFFSET 28.1742 -1.7115 0.48768
            CHANNELS 3 Zrotation Xrotation Yrotation
            JOINT lHand
            {
              OFFSET 22.5879 0.773209 7.07136
              CHANNELS 3 Zrotation Xrotation Yrotation
              JOINT lThumb1
              {
                OFFSET 1.2192 -0.487915 3.41376
                CHANNELS 3 Zrotation Xrotation Yrotation
                JOINT lThumb2
                {
                  OFFSET 3.37035 -0.52449 3.41376
                  CHANNELS 3 Zrotation Xrotation Yrotation
                  End Site
                  {
                    OFFSET 1.78271 -1.18214 1.43049
                  }
                }
              }
              JOINT lIndex1
              {
                OFFSET 7.75947 0.938293 5.60832
                CHANNELS 3 Zrotation Xrotation Yrotation
                JOINT lIndex2
                {
                  OFFSET 2.54057 -0.884171 1.56538
                  CHANNELS 3 Zrotation Xrotation Yrotation
                  End Site
                  {
                    OFFSET 1.62519 -0.234802 1.16502
                  }
                }
              }
              JOINT lMid1
              {
                OFFSET 8.24714 1.18213 3.41376
                CHANNELS 3 Zrotation Xrotation Yrotation
                JOINT lMid2
                {
                  OFFSET 3.10165 -0.590103 1.0647
                  CHANNELS 3 Zrotation Xrotation Yrotation
                  End Site
                  {
                    OFFSET 2.48547 -0.328903 0.83742
                  }
                }
              }
              JOINT lRing1
              {
                OFFSET 8.82822 0.546677 1.51678
                CHANNELS 3 Zrotation Xrotation Yrotation
                JOINT lRing2
                {
                  OFFSET 2.60934 -0.819778 -0.0198488
                  CHANNELS 3 Zrotation Xrotation Yrotation
                  End Site
                  {
                    OFFSET 2.33842 -0.294052 0.168128
                  }
                }
              }
              JOINT lPinky1
              {
                OFFSET 8.27202 -0.0477905 -0.4584
                CHANNELS 3 Zrotation Xrotation Yrotation
                JOINT lPinky2
                {
                  OFFSET 1.82734 -0.647385 -0.700984
                  CHANNELS 3 Zrotation Xrotation Yrotation
                  End Site
                  {
                    OFFSET 1.69225 -0.51767 -0.607171
                  }
                }
              }
            }
          }
        }
      }
    }
  }
  JOINT rButtock
  {
    OFFSET -8.77824 4.35084 1.2192
    CHANNELS 3 Zrotation Xrotation Yrotation
    JOINT rThigh
    {
      OFFSET 0 -1.70687 -2.19456
      CHANNELS 3 Zrotation Xrotation Yrotation
      JOINT rShin
      {
        OFFSET 0 -36.8199 0.73152
        CHANNELS 3 Zrotation Xrotation Yrotation
        JOINT rFoot
        {
          OFFSET 0.73152 -45.1104 -5.12064
          CHANNELS 3 Zrotation Xrotation Yrotation
          End Site
          {
            OFFSET -1.1221 -3.69964 12.103
          }
        }
      }
    }
  }
  JOINT lButtock
  {
    OFFSET 8.77824 4.35084 1.2192
    CHANNELS 3 Zrotation Xrotation Yrotation
    JOINT lThigh
    {
      OFFSET 0 -1.70687 -2.19456
      CHANNELS 3 Zrotation Xrotation Yrotation
      JOINT lShin
      {
        OFFSET 0 -36.8199 0.73152
        CHANNELS 3 Zrotation Xrotation Yrotation
        JOINT lFoot
        {
          OFFSET -0.73152 -45.1104 -5.12064
          CHANNELS 3 Zrotation Xrotation Yrotation
          End Site
          {
            OFFSET 1.1221 -3.69964 12.103
          }
        }
      }
    }
  }
}
MOTION
Frames:	4
Frame Time:	0.00833333
6.77012 85.3572 187.426 0.0 0.0 0.0 1.31604 -0.00470379 0.0362375 0.36346 -0.00359453 0.0629622 -2.80591e-14 0.0 -9.93923e-17 -8.45239e-14 3.18055e-15 -1.98785e-16 -0.0 0.0 0.0 -0.0 0.0 0.0 -1.39664e-14 -4.07664e-18 9.93923e-17 -2.9352e-13 -1.67725e-16 -7.95139e-16 -5.09008e-12 1.51593e-12 9.54166e-15 -5.81978e-11 -1.54244e-12 -2.38542e-13 -1.37293e-10 -5.79886e-14 -4.58e-13 -2.37103e-10 -1.04958e-13 -7.93548e-13 -1.37286e-10 -5.4467e-14 -4.73903e-13 7.73091 5.47488 0.417314 -1.37291e-10 -5.70512e-14 -4.64361e-13 2.90554 0.965183 0.102902 -1.37274e-10 -5.70512e-14 -4.60385e-13 10.2786 0.731801 0.0259123 -1.37295e-10 -5.725e-14 -4.58e-13 2.22167 -0.733487 -0.20892 -1.39637e-14 -3.10601e-18 -9.93923e-17 -2.97443e-13 -5.59082e-17 -2.5842e-15 -5.08054e-12 -1.52905e-12 5.725e-14 -5.82137e-11 1.50189e-12 -2.70347e-13 -1.37304e-10 -6.08566e-14 -4.6118e-13 -2.37117e-10 -1.04958e-13 -7.78441e-13 -1.37311e-10 -5.60573e-14 -4.42097e-13 -7.73091 5.47488 -0.417314 -1.37305e-10 -6.0033e-14 -4.54819e-13 -2.90554 0.965183 -0.102902 -1.3731e-10 -6.03311e-14 -4.57205e-13 -10.2786 0.731801 -0.0259123 -1.37305e-10 -6.16232e-14 -4.64361e-13 -2.22167 -0.733487 0.20892 -2.03217e-16 0.0 -3.88251e-19 1.46234 -6.13861 -0.134747 0.00180571 5.56146 0.0541848 -0.47805 0.575035 0.0659563 2.03217e-16 0.0 3.88251e-19 0.54483 -1.92085 0.00800308 0.0089094 -2.07861 0.0733753 0.452722 3.99724 -0.131523
6.93686 83.5198 175.488 172.781 0.5424 -176.797 -0.862007 -0.182459 -2.40906 1.14965 1.11477 -0.611877 1.33513 -3.10395 0.500505 -1.87991 9.00686 2.48898 -0.0 0.0 0.0 -0.0 0.0 0.0 -3.64218e-14 2.07789e-15 2.11298e-14 19.9075 10.1941 -10.6851 -17.87 -15.419 15.069 0.00172306 0.988938 0.138934 -1.0099e-10 2.01108e-10 4.13338e-11 -1.74261e-10 3.47429e-10 7.15503e-11 -1.00986e-10 2.01113e-10 4.13219e-11 7.73091 5.47488 0.417314 -1.00988e-10 2.01117e-10 4.13302e-11 2.90554 0.965183 0.102902 -1.00975e-10 2.01117e-10 4.13322e-11 10.2786 0.731801 0.0259123 -1.00993e-10 2.0111e-10 4.13349e-11 2.22167 -0.733487 -0.20892 -3.64104e-14 2.07904e-15 2.09481e-14 -19.1631 15.6785 2.46872 21.2442 -19.0746 -15.1188 -0.0741201 6.04788 -0.832993 -7.67495e-12 -7.29488e-11 4.64834e-11 -1.337e-11 -1.28706e-10 7.92283e-11 -7.68142e-12 -7.2948e-11 4.65007e-11 -7.73091 5.47488 -0.417314 -7.67478e-12 -7.29483e-11 4.6487e-11 -2.90554 0.965183 -0.102902 -7.68085e-12 -7.29479e-11 4.64873e-11 -10.2786 0.731801 -0.0259123 -7.67338e-12 -7.29492e-11 4.64792e-11 -2.22167 -0.733487 0.20892 -2.03217e-16 0.0 -3.88251e-19 1.28114 -13.8827 -0.340286 -0.117539 13.9877 0.0029371 -0.475727 3.52136 -2.67405 2.03217e-16 0.0 3.88251e-19 -0.824839 -2.0176 0.978126 0.0986412 12.0775 -0.0350281 0.193542 13.0482 1.81506
7.27246 83.0653 173.957 173.163 0.8306 -177.518 -3.2351 -0.39885 -5.01744 2.01518 2.29632 -1.3334 2.80224 -6.3849 1.03858 -4.75358 18.4932 5.34724 -0.0 0.0 0.0 -0.0 0.0 0.0 -6.27912e-14 3.82448e-15 4.47918e-14 45.2061 19.7628 -23.158 -27.4378 -28.0779 34.3567 -0.00180564 1.99273 0.28011 -6.08144e-11 4.21815e-10 8.8496e-11 -1.04723e-10 7.28714e-10 1.53186e-10 -6.08141e-11 4.2182e-10 8.84886e-11 7.73091 5.47488 0.417314 -6.08135e-11 4.21833e-10 8.84956e-11 2.90554 0.965183 0.102902 -6.08031e-11 4.21833e-10 8.84955e-11 10.2786 0.731801 0.0259123 -6.08179e-11 4.21818e-10 8.84985e-11 2.22167 -0.733487 -0.20892 -6.27703e-14 3.82578e-15 4.46303e-14 -41.0929 32.2102 5.7703 31.393 -34.6086 -36.544 0.0427983 12.4164 -1.74214 1.4013e-10 -1.70289e-10 9.50465e-11 2.4169e-10 -3.00091e-10 1.61799e-10 1.40124e-10 -1.70293e-10 9.5062e-11 -7.73091 5.47488 -0.417314 1.40131e-10 -1.70289e-10 9.50471e-11 -2.90554 0.965183 -0.102902 1.40124e-10 -1.70288e-10 9.50505e-11 -10.2786 0.731801 -0.0259123 1.40134e-10 -1.70289e-10 9.50411e-11 -2.22167 -0.733487 0.20892 -2.03217e-16 0.0 -3.88251e-19 0.964659 -22.1212 -0.584444 -0.225606 22.8515 -0.0563318 -0.158822 6.69566 -5.55861 2.03217e-16 0.0 3.88251e-19 -2.33095 -2.03096 2.00142 0.253381 26.8745 -0.163 -0.787569 22.6329 4.02273
7.69117 82.6003 172.497 173.877 1.2341 -178.103 -5.26349 -0.53409 -7.29995 2.80117 3.34973 -1.96457 4.16989 -9.309 1.51932 -8.21936 26.804 8.26848 -0.0 0.0 0.0 -0.0 0.0 0.0 -8.13325e-14 6.24182e-15 6.31906e-14 71.5062 26.1258 -35.6393 -28.6463 -32.4904 54.7597 -0.00923535 2.96674 0.4173 -2.8384e-11 6.03441e-10 1.24917e-10 -4.85759e-11 1.0425e-09 2.16238e-10 -2.83862e-11 6.03447e-10 1.24913e-10 7.73091 5.47488 0.417314 -2.83836e-11 6.03466e-10 1.24919e-10 2.90554 0.965183 0.102902 -2.83761e-11 6.03465e-10 1.24917e-10 10.2786 0.731801 0.0259123 -2.83877e-11 6.03445e-10 1.24921e-10 2.22167 -0.733487 -0.20892 -8.13036e-14 6.24334e-15 6.30431e-14 -63.0891 46.6026 10.4087 30.2163 -39.0205 -61.0124 0.328453 18.1279 -2.61495 2.51584e-10 -2.18725e-10 1.40372e-10 4.34124e-10 -3.85907e-10 2.39242e-10 2.51577e-10 -2.18732e-10 1.40386e-10 -7.73091 5.47488 -0.417314 2.51585e-10 -2.18725e-10 1.40371e-10 -2.90554 0.965183 -0.102902 2.51577e-10 -2.18723e-10 1.40376e-10 -10.2786 0.731801 -0.0259123 2.5159e-10 -2.18724e-10 1.40366e-10 -2.22167 -0.733487 0.20892 -2.03217e-16 0.0 -3.88251e-19 0.727912 -29.3689 -0.829731 -0.305305 30.8401 -0.115664 0.380834 9.32971 -8.24875 2.03217e-16 0.0 3.88251e-19 -3.55436 -2.20912 2.91873 0.473628 40.3892 -0.327459 -2.43493 31.0056 6.49868
